<?xml version="1.0" encoding="utf-8"?>
<!-- Generator: Adobe Illustrator 19.0.0, SVG Export Plug-In . SVG Version: 6.00 Build 0)  -->
<svg version="1.1" id="Calque_1" xmlns="http://www.w3.org/2000/svg" xmlns:xlink="http://www.w3.org/1999/xlink" x="0px" y="0px"
	 viewBox="0 0 250 30" style="enable-background:new 0 0 250 30;" xml:space="preserve">
<style type="text/css">
	.st0{fill:#FFFFFF;}
</style>
<g id="XMLID_63_">
	<path id="XMLID_110_" class="st0" d="M46.3,9.8l-1.6,1.9c-0.8-0.9-2-1.6-3.1-1.6c-2.1,0-3.7,1.6-3.7,3.7c0,2.1,1.6,3.7,3.7,3.7
		c1.1,0,2.3-0.5,3.1-1.4l1.6,1.7c-1.3,1.3-3.1,2.1-4.9,2.1c-3.6,0-6.3-2.7-6.3-6.1c0-3.5,2.8-6.1,6.4-6.1
		C43.3,7.8,45.1,8.6,46.3,9.8z"/>
	<path id="XMLID_112_" class="st0" d="M56.8,15.3c0,2.8-2,4.7-4.9,4.7c-3,0-5-1.9-5-4.7c0-2.8,2-4.7,5-4.7
		C54.8,10.6,56.8,12.5,56.8,15.3z M49.5,15.3c0,1.5,0.9,2.5,2.3,2.5c1.4,0,2.3-1,2.3-2.5c0-1.5-0.9-2.5-2.3-2.5
		C50.5,12.8,49.5,13.8,49.5,15.3z"/>
	<path id="XMLID_115_" class="st0" d="M74.1,14.1v5.8h-2.6v-5c0-1.2-0.7-1.9-1.8-1.9c-1.3,0-2,1-2,2.3v4.6H65v-5
		c0-1.2-0.7-1.9-1.8-1.9c-1.3,0-2.1,1-2.1,2.3v4.6h-2.6v-9.2h2.6v1.6c0.7-1.1,1.7-1.7,3.1-1.7c1.6,0,2.7,0.8,3.1,2.1
		c0.6-1.4,1.8-2.1,3.3-2.1C72.8,10.6,74.1,12,74.1,14.1z"/>
	<path id="XMLID_117_" class="st0" d="M86.3,15.3c0,2.8-1.7,4.7-4.3,4.7c-1.3,0-2.3-0.5-3-1.4v4.7h-2.6V10.7h2.6V12
		c0.7-0.9,1.7-1.4,2.9-1.4C84.6,10.6,86.3,12.5,86.3,15.3z M83.6,15.3c0-1.5-0.9-2.5-2.3-2.5s-2.3,1-2.3,2.5c0,1.5,0.9,2.6,2.3,2.6
		S83.6,16.8,83.6,15.3z"/>
	<path id="XMLID_120_" class="st0" d="M93.4,18.8c-0.6,0.8-1.6,1.2-2.9,1.2c-2,0-3.2-1.2-3.2-2.9c0-1.7,1.3-2.8,3.5-2.8h2.5v-0.2
		c0-1-0.7-1.5-1.9-1.5c-0.8,0-1.8,0.3-2.7,0.8l-0.8-1.8c1.4-0.7,2.6-1.1,4.2-1.1c2.5,0,3.9,1.2,3.9,3.3l0,6h-2.6V18.8z M93.4,16.8
		v-0.8h-2.1c-1,0-1.5,0.3-1.5,1c0,0.7,0.5,1.2,1.4,1.2C92.4,18.1,93.2,17.5,93.4,16.8z"/>
	<path id="XMLID_123_" class="st0" d="M100.9,12.3c0.6-1.1,1.7-1.7,3.1-1.8v2.5c-1.9-0.2-3.1,0.8-3.1,2.4v4.4h-2.6v-9.2h2.6V12.3z"
		/>
	<path id="XMLID_125_" class="st0" d="M110.5,18.8c-0.6,0.8-1.6,1.2-2.9,1.2c-2,0-3.2-1.2-3.2-2.9c0-1.7,1.3-2.8,3.5-2.8h2.5v-0.2
		c0-1-0.7-1.5-1.9-1.5c-0.8,0-1.8,0.3-2.7,0.8l-0.8-1.8c1.4-0.7,2.6-1.1,4.2-1.1c2.5,0,3.9,1.2,3.9,3.3l0,6h-2.6V18.8z M110.5,16.8
		v-0.8h-2.1c-1,0-1.5,0.3-1.5,1c0,0.7,0.5,1.2,1.4,1.2C109.4,18.1,110.3,17.5,110.5,16.8z"/>
	<path id="XMLID_128_" class="st0" d="M121.1,19.4c-0.7,0.4-1.5,0.6-2.4,0.6c-1.6,0-2.9-0.9-2.9-2.8v-4.3h-1.3v-1.8h1.3V8.6h2.6v2.5
		h2.5v1.8h-2.5v3.8c0,0.8,0.3,1.1,0.9,1.1c0.3,0,0.8-0.1,1.2-0.3L121.1,19.4z"/>
	<path id="XMLID_130_" class="st0" d="M131.1,16.1h-6.6c0.3,1.2,1.2,1.9,2.4,1.9c0.9,0,1.7-0.3,2.3-1l1.4,1.4
		c-0.9,1-2.3,1.6-3.9,1.6c-3,0-4.8-1.9-4.8-4.7c0-2.8,1.9-4.7,4.8-4.7C129.8,10.6,131.3,12.7,131.1,16.1z M128.6,14.5
		c0-1.2-0.8-2-2-2c-1.2,0-2,0.8-2.2,2H128.6z"/>
	<path id="XMLID_133_" class="st0" d="M141.6,19.9H139v-1.6c-0.6,1.2-1.7,1.7-3.1,1.7c-2,0-3.3-1.4-3.3-3.5v-5.8h2.6v5
		c0,1.2,0.7,1.9,1.7,1.9c1.3,0,2-1,2-2.3v-4.6h2.6V19.9z"/>
	<path id="XMLID_135_" class="st0" d="M146.8,12.3c0.6-1.1,1.7-1.7,3.1-1.8v2.5c-1.9-0.2-3.1,0.8-3.1,2.4v4.4h-2.6v-9.2h2.6V12.3z"
		/>
	<path id="XMLID_138_" class="st0" d="M153.6,17.6l-0.9,2.3h-2.8l5.2-12h2.8l5.1,12h-2.9l-0.9-2.3H153.6z M156.4,10.7l-1.9,4.7h3.8
		L156.4,10.7z"/>
	<path id="XMLID_144_" class="st0" d="M172.4,19.1c0,2.6-2,4.3-4.9,4.3c-1.6,0-3-0.5-4-1.2l1-1.9c0.8,0.6,1.8,0.9,2.9,0.9
		c1.5,0,2.5-0.8,2.5-2.1v-1c-0.6,0.9-1.6,1.3-2.8,1.3c-2.4,0-4-1.8-4-4.5c0-2.6,1.6-4.4,4-4.4c1.3,0,2.2,0.5,2.8,1.3v-1.3h2.6V19.1z
		 M169.8,15c0-1.4-0.9-2.4-2.2-2.4s-2.2,1-2.2,2.4c0,1.4,0.9,2.4,2.2,2.4C168.9,17.4,169.8,16.4,169.8,15z"/>
	<path id="XMLID_147_" class="st0" d="M177.5,12.3c0.6-1.1,1.7-1.7,3.1-1.8v2.5c-1.9-0.2-3.1,0.8-3.1,2.4v4.4h-2.6v-9.2h2.6V12.3z"
		/>
	<path id="XMLID_149_" class="st0" d="M184.7,8.1c0,0.9-0.6,1.5-1.4,1.5s-1.4-0.6-1.4-1.5c0-0.9,0.6-1.5,1.4-1.5
		S184.7,7.2,184.7,8.1z M182,19.9v-9.2h2.6v9.2H182z"/>
	<path id="XMLID_152_" class="st0" d="M195.1,12.5l-1.8,1.3c-0.5-0.6-1.2-1-2.1-1c-1.3,0-2.2,1-2.2,2.5c0,1.5,0.9,2.5,2.2,2.5
		c0.9,0,1.7-0.4,2.1-1.1l1.8,1.2c-0.8,1.3-2.2,2-4.1,2c-2.8,0-4.7-1.9-4.7-4.7c0-2.8,1.9-4.7,4.7-4.7
		C192.9,10.6,194.3,11.3,195.1,12.5z"/>
	<path id="XMLID_154_" class="st0" d="M205.6,15.3c0,2.8-2,4.7-4.9,4.7c-3,0-5-1.9-5-4.7c0-2.8,2-4.7,5-4.7
		C203.6,10.6,205.6,12.5,205.6,15.3z M198.4,15.3c0,1.5,0.9,2.5,2.3,2.5c1.4,0,2.3-1,2.3-2.5c0-1.5-0.9-2.5-2.3-2.5
		C199.3,12.8,198.4,13.8,198.4,15.3z"/>
	<path id="XMLID_157_" class="st0" d="M207.4,19.9V7.2h2.6v12.7H207.4z"/>
	<path id="XMLID_159_" class="st0" d="M221.2,16.1h-6.6c0.3,1.2,1.2,1.9,2.4,1.9c0.9,0,1.7-0.3,2.3-1l1.4,1.4
		c-0.9,1-2.3,1.6-3.9,1.6c-3,0-4.8-1.9-4.8-4.7c0-2.8,1.9-4.7,4.8-4.7C219.9,10.6,221.4,12.7,221.2,16.1z M218.7,14.5
		c0-1.2-0.8-2-2-2c-1.2,0-2,0.8-2.2,2H218.7z"/>
	<path id="XMLID_179_" class="st0" d="M222.8,19.6c0,0.2-0.1,0.4-0.3,0.4c-0.2,0-0.3-0.2-0.3-0.4s0.1-0.4,0.3-0.4
		C222.6,19.2,222.8,19.4,222.8,19.6z"/>
	<path id="XMLID_181_" class="st0" d="M226.7,16.7l-0.3,0.4c-0.3-0.3-0.7-0.4-1.1-0.4c-0.8,0-1.3,0.6-1.3,1.4s0.6,1.4,1.3,1.4
		c0.5,0,0.9-0.2,1.2-0.5l0.3,0.3c-0.3,0.4-0.9,0.6-1.5,0.6c-1.1,0-1.9-0.8-1.9-1.9s0.8-1.9,1.9-1.9
		C225.9,16.1,226.4,16.3,226.7,16.7z"/>
	<path id="XMLID_183_" class="st0" d="M231,18c0,1.1-0.8,1.9-1.9,1.9c-1.1,0-1.9-0.8-1.9-1.9c0-1.1,0.8-1.9,1.9-1.9
		C230.2,16.1,231,16.9,231,18z M227.8,18c0,0.8,0.6,1.4,1.3,1.4c0.8,0,1.3-0.6,1.3-1.4c0-0.8-0.6-1.4-1.3-1.4
		C228.4,16.6,227.8,17.2,227.8,18z"/>
	<path id="XMLID_186_" class="st0" d="M238.2,17.6v2.3h-0.6v-2.2c0-0.7-0.4-1.1-1-1.1c-0.8,0-1.2,0.6-1.2,1.4v1.8h-0.6v-2.2
		c0-0.7-0.4-1.1-1-1.1c-0.8,0-1.2,0.6-1.2,1.4v1.8H232v-3.8h0.5V17c0.2-0.6,0.8-0.9,1.4-0.9c0.7,0,1.2,0.4,1.3,1
		c0.2-0.7,0.8-1,1.5-1C237.7,16.1,238.2,16.7,238.2,17.6z"/>
</g>
<g id="XMLID_2_">
	<path id="XMLID_15_" class="st0" d="M24,16.5c-1,0.3-1.7,0-2-0.8c-0.1-0.3-0.1-0.4,0.3-0.5c0.9-0.3,1.3,0,1.7,1.1
		c0.1,0,0.3-0.1,0.4-0.1c0-0.1,0-0.2-0.1-0.3c-0.2-0.9,0-1.3,1-1.5c0.3-0.1,0.4,0,0.5,0.3c0.2,0.9-0.3,1.5-1.3,1.8
		c0.2,0.8,0.5,1.6,0.7,2.4c0,0.1,0.1,0.3,0.1,0.4c0,0.2-0.1,0.3-0.1,0.5c-0.1-0.1-0.3-0.2-0.3-0.4c-0.1-0.4-0.2-0.9-0.4-1.3
		C24.3,17.5,24.1,17,24,16.5z"/>
	<path id="XMLID_14_" class="st0" d="M24,8.3c0.3,0.8,0.2,1-0.5,1.3c-0.2,0.1-0.5,0.3-0.7,0.4C22.3,9,22.7,8.5,24,8.3z"/>
	<path id="XMLID_13_" class="st0" d="M22.3,10.1c-0.4,0-0.8,0.1-1.2,0.1c-0.6,0-0.5-0.5-0.7-0.8C21.3,8.7,22.1,9.1,22.3,10.1z"/>
	<path id="XMLID_12_" class="st0" d="M21.5,13.8c1.2-0.5,1.8-0.3,2,0.8c-0.4,0-0.9,0.1-1.3,0.1C21.6,14.6,21.7,14.1,21.5,13.8z"/>
	<path id="XMLID_11_" class="st0" d="M22.4,8.5c-0.3-1-0.2-1.4,0.8-1.9c0.1,0.4,0.2,0.7,0.3,1.1c0,0.1-0.1,0.3-0.2,0.3
		C23,8.1,22.7,8.3,22.4,8.5z"/>
	<path id="XMLID_10_" class="st0" d="M20.3,7.3c1-0.1,1.4,0.2,1.6,1.3C20.4,8.6,20.2,8.5,20.3,7.3z"/>
	<path id="XMLID_9_" class="st0" d="M25.2,12.8c0.3,0.8,0.2,0.9-0.5,1.3c-0.2,0.1-0.5,0.3-0.7,0.4C23.5,13.7,23.6,13,25.2,12.8z"/>
	<path id="XMLID_8_" class="st0" d="M24.8,11.3c0.3,0.8,0.2,1-0.5,1.3c-0.3,0.1-0.5,0.3-0.7,0.4C23.1,12.1,23.3,11.6,24.8,11.3z"/>
	<path id="XMLID_7_" class="st0" d="M20.7,10.8c1.2-0.5,1.8-0.3,1.9,0.8c-0.4,0-0.8,0.1-1.2,0.1C20.8,11.7,20.9,11.2,20.7,10.8z"/>
	<path id="XMLID_6_" class="st0" d="M23.1,13.1c-0.3,0-0.6,0-0.9,0c-0.7,0.1-0.9-0.1-0.9-0.8C22.2,11.8,22.9,12,23.1,13.1z"/>
	<path id="XMLID_5_" class="st0" d="M24.4,9.8c0.2,0.8,0.2,0.9-0.5,1.2c-0.2,0.1-0.5,0.3-0.7,0.4C22.7,10.5,23.1,10,24.4,9.8z"/>
	<path id="XMLID_3_" class="st0" d="M21.2,5.4c1.2,0.7,1.3,0.9,0.5,1.8c-0.3-0.1-0.6-0.3-0.9-0.4C21,6.3,21.1,5.9,21.2,5.4z"/>
</g>
<g id="XMLID_1_">
	<path id="XMLID_16_" class="st0" d="M22.8,21c-0.3-0.3-0.5-0.7-0.8-1.1c-0.3-0.4-0.6-0.9-0.9-1.3c-0.8,0.6-1.6,0.6-2.2-0.1
		c-0.2-0.2-0.2-0.4,0-0.6c0.7-0.6,1.2-0.5,2,0.5c0.1-0.1,0.2-0.1,0.3-0.2c0-0.1-0.1-0.2-0.2-0.3c-0.5-0.8-0.4-1.2,0.3-1.8
		c0.3-0.2,0.4-0.1,0.5,0.1c0.5,0.7,0.3,1.5-0.6,2.1c0.5,0.7,1,1.3,1.5,2c0.1,0.1,0.2,0.2,0.3,0.4"/>
	<path id="XMLID_75_" class="st0" d="M18.1,10.9c0.6,0.7,0.6,0.9,0,1.4c-0.2,0.2-0.3,0.4-0.5,0.6C16.8,12.2,16.9,11.6,18.1,10.9z"/>
	<path id="XMLID_74_" class="st0" d="M17.1,13.3c-0.4,0.2-0.7,0.3-1.1,0.5c-0.5,0.2-0.7-0.3-1-0.5C15.8,12.3,16.7,12.3,17.1,13.3z"
		/>
	<path id="XMLID_73_" class="st0" d="M17.7,17c0.9-0.9,1.6-0.9,2.1,0c-0.4,0.2-0.8,0.4-1.2,0.5C18.2,17.7,18,17.2,17.7,17z"/>
	<path id="XMLID_72_" class="st0" d="M16.7,11.7c-0.7-0.8-0.7-1.3,0.1-2.1c0.2,0.3,0.5,0.6,0.7,0.9c0.1,0.1,0,0.3-0.1,0.4
		C17.1,11.2,16.9,11.4,16.7,11.7z"/>
	<path id="XMLID_71_" class="st0" d="M14.3,11.4c0.9-0.5,1.4-0.3,1.9,0.6C14.8,12.5,14.6,12.5,14.3,11.4z"/>
	<path id="XMLID_70_" class="st0" d="M20.8,14.7c0.5,0.7,0.5,0.8,0,1.4c-0.2,0.2-0.3,0.4-0.5,0.6C19.6,16.2,19.5,15.5,20.8,14.7z"/>
	<path id="XMLID_69_" class="st0" d="M19.9,13.5c0.6,0.6,0.5,0.8,0,1.3c-0.2,0.2-0.4,0.4-0.5,0.6C18.7,14.8,18.6,14.3,19.9,13.5z"/>
	<path id="XMLID_68_" class="st0" d="M16,14.5c0.9-0.9,1.6-0.9,2.1,0c-0.4,0.2-0.7,0.3-1.1,0.5C16.3,15.2,16.2,14.7,16,14.5z"/>
	<path id="XMLID_67_" class="st0" d="M18.9,15.8c-0.3,0.1-0.6,0.2-0.9,0.3c-0.6,0.3-0.8,0.2-1.2-0.4C17.7,14.8,18.4,14.8,18.9,15.8z
		"/>
	<path id="XMLID_66_" class="st0" d="M19.1,12.2c0.5,0.7,0.5,0.7-0.1,1.3c-0.2,0.2-0.3,0.4-0.5,0.6C17.7,13.5,17.9,12.8,19.1,12.2z"
		/>
	<path id="XMLID_65_" class="st0" d="M14.5,9.2c1.4,0.2,1.5,0.4,1.2,1.5c-0.3,0-0.6,0-1-0.1C14.6,10.2,14.5,9.7,14.5,9.2z"/>
</g>
<path id="XMLID_28_" class="st0" d="M26,19.6c-5.2,3.5-10.1,1.5-12.5-1.6c-2.6-3.4-2.3-8.3,0.7-11.4c3.2-3.2,8-3.5,11.6-0.8
	c3.8,2.9,4.4,7.6,1.6,12.3c2.3,2.1,4.6,4.2,6.9,6.3c-0.6,0.6-1,1.1-1.5,1.6C30.6,23.9,28.3,21.7,26,19.6z M20.8,20.4
	c4.2-0.2,7.5-3.7,7.4-7.9c-0.1-4.3-3.7-7.6-8-7.5C16,5.2,12.7,8.8,12.8,13C12.9,17.3,16.5,20.6,20.8,20.4z"/>
</svg>
